<?xml version="1.0" encoding="iso-8859-1"?>
<!-- Generator: Adobe Illustrator 19.0.0, SVG Export Plug-In . SVG Version: 6.00 Build 0)  -->
<svg version="1.1" id="Capa_1" xmlns="http://www.w3.org/2000/svg" xmlns:xlink="http://www.w3.org/1999/xlink" x="0px" y="0px"
	 viewBox="0 0 511.96 511.96" style="enable-background:new 0 0 511.96 511.96;" xml:space="preserve">
<g transform="translate(-1)">
	<g>
		<g>
			<path d="M286.585,274.299c89.892-89.892,132.65-170.342,141.958-211.933c1.315-5.762-0.783-11.769-5.4-15.458
				c-4.704-3.771-11.154-4.513-16.592-1.908c-34.034,18.148-66.894,38.419-98.383,60.692c-44.233,29.8-89.967,60.617-130.9,78.008
				c-26.035,10.991-49.699,26.911-69.692,46.883c-61.95,61.95-74.058,146.525-63.433,176.458
				c2.055,5.939,7.442,10.088,13.708,10.558c0.658,0.042,1.35,0.067,2.092,0.067C88.527,417.665,177.068,383.824,286.585,274.299z
				 M119.643,242.649L119.643,242.649c18.441-18.425,40.273-33.109,64.292-43.242c42.45-18.033,88.875-49.317,133.95-79.692
				c29.965-21.082,61.104-40.444,93.267-57.992C400.96,101.907,359.61,177.14,274.518,262.232
				C169.726,367.024,85.435,400.624,60.593,400.615h-0.608C53.243,379.332,61.168,301.124,119.643,242.649z"/>
			<path d="M106.368,362.182c13.592,0,30.692-10.092,44.167-23.567c19.042-19.042,31.317-45.317,17.933-58.7
				c-13.375-13.383-39.658-1.1-58.692,17.933c-19.042,19.042-31.317,45.317-17.933,58.7
				C95.711,360.333,100.96,362.369,106.368,362.182z M121.843,309.915c8.257-9.701,19.611-16.254,32.142-18.55
				c0.854-0.094,1.712,0.125,2.417,0.617c2.133,2.142-0.708,17.342-17.933,34.567c-17.233,17.242-32.417,20.067-34.558,17.933
				C101.776,342.34,104.618,327.14,121.843,309.915z"/>
			<path d="M498.46,64.707L448.293,14.54l-0.05-0.05c-29.517-29.517-93.592,13.225-167.8,62.742
				c-41.7,27.825-84.817,56.592-121.275,71.708C41.618,197.682,11.693,306.107,5.318,338.182
				c-9.167,46.142-3.509,86.167,14.783,104.45l50.217,50.217c10.958,9.988,25.492,15.116,40.292,14.217
				c59.567,0,158.033-57,251.55-150.517c56.225-56.225,101.583-116.742,127.733-170.417C517.36,129.765,520.401,86.64,498.46,64.707
				z M22.06,341.507c5.958-29.975,33.917-131.3,143.642-176.8c38.008-15.758,81.833-45,124.217-73.275
				c49.433-32.991,104.358-69.634,132.675-69.634c4.986-0.323,9.889,1.395,13.583,4.758c16.15,16.15,11.833,53.283-11.842,101.883
				c-25.342,52.017-69.542,110.908-124.459,165.825c-6.841,6.841-13.737,13.51-20.688,20.006l-0.101,0.095
				c-43.074,41.576-91.919,76.72-145.028,104.349c-19.596,10.232-40.71,17.246-62.532,20.776c-0.222,0.026-0.457,0.069-0.678,0.094
				c-1.197,0.138-2.33,0.198-3.487,0.289c-1.028,0.078-2.085,0.19-3.082,0.23c-0.346,0.015-0.666-0.001-1.008,0.009
				c-11.241,1.238-22.494-2.217-31.104-9.549C20.618,419.015,13.018,386.999,22.06,341.507z M474.552,178.657
				c-25.342,52.017-69.542,110.908-124.459,165.825s-113.8,99.108-165.817,124.45c-48.617,23.7-85.742,28-101.892,11.85
				L58.71,457.099c21.942,0.483,50.292-7.192,82.825-23.042c9.335-4.547,18.932-9.875,28.624-15.541
				c2.116-1.232,4.239-2.489,6.371-3.771c3.628-2.194,7.255-4.418,10.918-6.757c3.336-2.123,6.707-4.37,10.081-6.62
				c2.818-1.884,5.618-3.695,8.45-5.658c6.283-4.346,12.615-8.899,18.997-13.658c1.455-1.087,2.913-2.253,4.37-3.36
				c5.253-3.985,10.525-8.097,15.817-12.336c2.062-1.658,4.118-3.362,6.18-5.056c4.732-3.885,9.472-7.87,14.218-11.956
				c2.146-1.849,4.286-3.697,6.429-5.582c4.827-4.247,9.652-8.603,14.477-13.069c1.906-1.757,3.816-3.472,5.716-5.256
				c6.601-6.2,13.194-12.539,19.761-19.106c56.225-56.225,101.583-116.742,127.733-170.417c1.861-3.819,3.588-7.564,5.224-11.259
				c0.529-1.195,0.997-2.354,1.503-3.535c1.063-2.484,2.105-4.955,3.064-7.38c0.534-1.349,1.022-2.67,1.524-4
				c0.836-2.216,1.641-4.412,2.386-6.573c0.462-1.339,0.901-2.663,1.329-3.981c0.688-2.121,1.331-4.214,1.927-6.277
				c0.362-1.25,0.727-2.5,1.057-3.729c0.577-2.147,1.081-4.246,1.558-6.33c0.244-1.066,0.515-2.149,0.732-3.198
				c0.51-2.454,0.925-4.846,1.292-7.205c0.096-0.614,0.231-1.256,0.317-1.864c0.418-2.959,0.722-5.839,0.91-8.64
				c0.042-0.622,0.031-1.207,0.061-1.821c0.106-2.126,0.171-4.223,0.14-6.252c-0.004-0.251,0.023-0.524,0.017-0.773l23.675,23.675
				C502.543,92.924,498.227,130.057,474.552,178.657z"/>
		</g>
	</g>
</g>
<g>
</g>
<g>
</g>
<g>
</g>
<g>
</g>
<g>
</g>
<g>
</g>
<g>
</g>
<g>
</g>
<g>
</g>
<g>
</g>
<g>
</g>
<g>
</g>
<g>
</g>
<g>
</g>
<g>
</g>
</svg>
